#tb 0: 1/100
0,          0,          0,        1,      552, 0x47602c6c
0,         10,         10,        1,      297, 0x49dd8847, S=1,     1024, 0xcfc8799f
0,         20,         20,        1,      438, 0x4776d352, S=1,     1024, 0xcfc8799f
0,         30,         30,        1,      450, 0x2254d187, S=1,     1024, 0xcfc8799f
0,         40,         40,        1,      547, 0xe16104bc, S=1,     1024, 0xcfc8799f
0,         50,         50,        1,      614, 0x0fdc2027, S=1,     1024, 0xcfc8799f
0,         60,         60,        1,      642, 0xa0af1edf, S=1,     1024, 0xcfc8799f
0,         70,         70,        1,      660, 0xd0763931, S=1,     1024, 0xcfc8799f
0,         80,         80,        1,      821, 0xc38f7fac, S=1,     1024, 0xcfc8799f
0,         90,         90,        1,     1157, 0x4c112ecd, S=1,     1024, 0xcfc8799f
0,        100,        100,        1,      179, 0x0690541c, S=1,     1024, 0xcfc8799f
0,        110,        110,        1,     1333, 0x216f70a7, S=1,     1024, 0xcfc8799f
0,        120,        120,        1,     1638, 0x901c093d, S=1,     1024, 0xcfc8799f
0,        130,        130,        1,     1531, 0xc9bae5ff, S=1,     1024, 0xcfc8799f
0,        140,        140,        1,     1720, 0xce854743, S=1,     1024, 0xcfc8799f
0,        150,        150,        1,     1910, 0x2690866d, S=1,     1024, 0xcfc8799f
0,        160,        160,        1,     2124, 0xa586dad0, S=1,     1024, 0xcfc8799f
0,        170,        170,        1,     2248, 0x9ddc2a88, S=1,     1024, 0xcfc8799f
0,        180,        180,        1,     2311, 0xd64235af, S=1,     1024, 0xcfc8799f
0,        190,        190,        1,     2408, 0xe2a66cc9, S=1,     1024, 0xcfc8799f
0,        200,        200,        1,     2601, 0xeab6c267, S=1,     1024, 0xcfc8799f
0,        210,        210,        1,     2687, 0xfe1d0311, S=1,     1024, 0xcfc8799f
0,        220,        220,        1,     2784, 0xca600dee, S=1,     1024, 0xcfc8799f
0,        230,        230,        1,     2884, 0xc7134b99, S=1,     1024, 0xcfc8799f
0,        240,        240,        1,     2982, 0x0b1e7825, S=1,     1024, 0xcfc8799f
0,        250,        250,        1,     3101, 0x3e029e0e, S=1,     1024, 0xcfc8799f
0,        260,        260,        1,     3253, 0x846af678, S=1,     1024, 0xcfc8799f
0,        270,        270,        1,     3329, 0x29a81b71, S=1,     1024, 0xcfc8799f
0,        280,        280,        1,     3572, 0xa3e08a52, S=1,     1024, 0xcfc8799f
0,        290,        290,        1,     3807, 0x18e1fed2, S=1,     1024, 0xcfc8799f
0,        300,        300,        1,     2750, 0xff6e1f9e, S=1,     1024, 0xcfc8799f
0,        310,        310,        1,     4031, 0x6d4f7329, S=1,     1024, 0xcfc8799f
0,        320,        320,        1,     3025, 0xb43c9e94, S=1,     1024, 0xcfc8799f
0,        330,        330,        1,     4295, 0xc1850a80, S=1,     1024, 0xcfc8799f
0,        340,        340,        1,     2044, 0x0440c072, S=1,     1024, 0xcfc8799f
0,        350,        350,        1,     3212, 0xe91af08f, S=1,     1024, 0xcfc8799f
0,        360,        360,        1,     2281, 0x6a414aa1, S=1,     1024, 0xcfc8799f
0,        370,        370,        1,     3633, 0xac779aa3, S=1,     1024, 0xcfc8799f
0,        380,        380,        1,     3552, 0xed2c75b2, S=1,     1024, 0xcfc8799f
0,        390,        390,        1,     3690, 0x2020dd0d, S=1,     1024, 0xcfc8799f
0,        400,        400,        1,     1558, 0x2c14e4b2, S=1,     1024, 0xcfc8799f
0,        410,        410,        1,      940, 0x4927cd90, S=1,     1024, 0xcfc8799f
0,        420,        420,        1,      273, 0x138c7831, S=1,     1024, 0xcfc8799f
0,        430,        430,        1,      930, 0xf1c3ae3f, S=1,     1024, 0xcfc8799f
0,        440,        440,        1,      271, 0x6d338044, S=1,     1024, 0xcfc8799f
0,        450,        450,        1,      196, 0xa5de5322, S=1,     1024, 0xcfc8799f
0,        460,        460,        1,     4299, 0x5bac0d86, S=1,     1024, 0xcfc8799f
0,        470,        470,        1,     4895, 0xc43639a6, S=1,     1024, 0xcfc8799f
0,        480,        480,        1,     4928, 0xf17d13e8, S=1,     1024, 0xcfc8799f
0,        490,        490,        1,     4941, 0x71915520, S=1,     1024, 0xcfc8799f
0,        500,        500,        1,     4154, 0xc860b8a6, S=1,     1024, 0xcfc8799f
0,        510,        510,        1,     4678, 0x2651c339, S=1,     1024, 0xcfc8799f
0,        520,        520,        1,     4741, 0xffd6bb45, S=1,     1024, 0xcfc8799f
0,        530,        530,        1,     4982, 0x132c5977, S=1,     1024, 0xcfc8799f
0,        540,        540,        1,     5179, 0x97aac3a1, S=1,     1024, 0xcfc8799f
0,        550,        550,        1,     5046, 0x836a80cd, S=1,     1024, 0xcfc8799f
0,        560,        560,        1,     5140, 0xa725c1e7, S=1,     1024, 0xcfc8799f
0,        570,        570,        1,     4289, 0x7b3afbc0, S=1,     1024, 0xcfc8799f
0,        580,        580,        1,     5079, 0xb2e7a2de, S=1,     1024, 0xcfc8799f
0,        590,        590,        1,     5284, 0xb757dfe1, S=1,     1024, 0xcfc8799f
0,        600,        600,        1,     5426, 0xf9f11e57, S=1,     1024, 0xcfc8799f
0,        610,        610,        1,     4645, 0xf0f289e1, S=1,     1024, 0xcfc8799f
0,        620,        620,        1,     5263, 0x8617d7e9, S=1,     1024, 0xcfc8799f
0,        630,        630,        1,     5221, 0x26e3ca43, S=1,     1024, 0xcfc8799f
0,        640,        640,        1,     5217, 0x90989cfb, S=1,     1024, 0xcfc8799f
0,        650,        650,        1,     5395, 0xe29a01cb, S=1,     1024, 0xcfc8799f
0,        660,        660,        1,     5220, 0xe2dee355, S=1,     1024, 0xcfc8799f
0,        670,        670,        1,     5704, 0xcfbcd55e, S=1,     1024, 0xcfc8799f
0,        680,        680,        1,     5636, 0x7fc2a1e5, S=1,     1024, 0xcfc8799f
0,        690,        690,        1,     5818, 0x6090ebbd, S=1,     1024, 0xcfc8799f
0,        700,        700,        1,     5763, 0xc110c791, S=1,     1024, 0xcfc8799f
0,        710,        710,        1,     6116, 0xb4ee8e30, S=1,     1024, 0xcfc8799f
0,        720,        720,        1,     6069, 0x21b263db, S=1,     1024, 0xcfc8799f
0,        730,        730,        1,     5796, 0x2514df52, S=1,     1024, 0xcfc8799f
0,        740,        740,        1,     5999, 0x1c3c3701, S=1,     1024, 0xcfc8799f
0,        750,        750,        1,     6220, 0x8340b150, S=1,     1024, 0xcfc8799f
0,        760,        760,        1,     6374, 0x00d8eaa5, S=1,     1024, 0xcfc8799f
0,        770,        770,        1,     6465, 0x74c4778a, S=1,     1024, 0xcfc8799f
0,        780,        780,        1,     7019, 0xdb1a28a3, S=1,     1024, 0xcfc8799f
0,        790,        790,        1,     7255, 0x1e19b76e, S=1,     1024, 0xcfc8799f
0,        800,        800,        1,     8197, 0x26bc6a79, S=1,     1024, 0xcfc8799f
0,        810,        810,        1,     8358, 0x118781e0, S=1,     1024, 0xcfc8799f
0,        820,        820,        1,     7708, 0xfc0c963d, S=1,     1024, 0xcfc8799f
0,        830,        830,        1,     7412, 0xdcc311ee, S=1,     1024, 0xcfc8799f
0,        840,        840,        1,     7541, 0x4d2819c1, S=1,     1024, 0xcfc8799f
0,        850,        850,        1,     7948, 0xf12eca3d, S=1,     1024, 0xcfc8799f
0,        860,        860,        1,     8408, 0x43add468, S=1,     1024, 0xcfc8799f
0,        870,        870,        1,     8056, 0x2d162377, S=1,     1024, 0xcfc8799f
0,        880,        880,        1,     7401, 0x26ebb649, S=1,     1024, 0xcfc8799f
0,        890,        890,        1,     7494, 0x35fcf9ae, S=1,     1024, 0xcfc8799f
0,        900,        900,        1,     7806, 0x4238723d, S=1,     1024, 0xcfc8799f
0,        910,        910,        1,     7768, 0xb01e795a, S=1,     1024, 0xcfc8799f
0,        920,        920,        1,     7749, 0x6ab39c12, S=1,     1024, 0xcfc8799f
0,        930,        930,        1,     8047, 0x0e5f24aa, S=1,     1024, 0xcfc8799f
0,        940,        940,        1,     7618, 0xd787340f, S=1,     1024, 0xcfc8799f
0,        950,        950,        1,     7979, 0x0824c4df, S=1,     1024, 0xcfc8799f
0,        960,        960,        1,    12062, 0xc46d9d92, S=1,     1024, 0xcfc8799f
0,        970,        970,        1,    12317, 0x1314dc0c, S=1,     1024, 0xcfc8799f
0,        980,        980,        1,    12217, 0x78c2ed30, S=1,     1024, 0xcfc8799f
0,        990,        990,        1,    11227, 0x2a578eb9, S=1,     1024, 0xcfc8799f
0,       1000,       1000,        1,    11108, 0x4eaa068c, S=1,     1024, 0xcfc8799f
0,       1010,       1010,        1,    11366, 0x48f8993f, S=1,     1024, 0xcfc8799f
0,       1020,       1020,        1,    11896, 0x32414841, S=1,     1024, 0xcfc8799f
0,       1030,       1030,        1,    11479, 0xeaa38225, S=1,     1024, 0xcfc8799f
0,       1040,       1040,        1,    13395, 0xaa9d4c72, S=1,     1024, 0xcfc8799f
0,       1050,       1050,        1,    12913, 0x28854353, S=1,     1024, 0xcfc8799f
0,       1060,       1060,        1,    13864, 0x663df630, S=1,     1024, 0xcfc8799f
0,       1070,       1070,        1,    13551, 0xf7ba7be7, S=1,     1024, 0xcfc8799f
0,       1080,       1080,        1,    14041, 0x2dc071b9, S=1,     1024, 0xcfc8799f
0,       1090,       1090,        1,    14144, 0x33a03d1d, S=1,     1024, 0xcfc8799f
0,       1100,       1100,        1,    14277, 0x6bda5935, S=1,     1024, 0xcfc8799f
0,       1110,       1110,        1,    14424, 0xa696efd8, S=1,     1024, 0xcfc8799f
0,       1120,       1120,        1,    14689, 0x8e3ad12c, S=1,     1024, 0xcfc8799f
0,       1130,       1130,        1,    14598, 0x544668b4, S=1,     1024, 0xcfc8799f
0,       1140,       1140,        1,    15213, 0x60009558, S=1,     1024, 0xcfc8799f
0,       1150,       1150,        1,    15425, 0x86e5adf4, S=1,     1024, 0xcfc8799f
0,       1160,       1160,        1,    15595, 0x878d09b9, S=1,     1024, 0xcfc8799f
0,       1170,       1170,        1,    15598, 0x10daabc4, S=1,     1024, 0xcfc8799f
0,       1180,       1180,        1,    15863, 0x2462016c, S=1,     1024, 0xcfc8799f
0,       1190,       1190,        1,    15717, 0xe05041c4, S=1,     1024, 0xcfc8799f
0,       1200,       1200,        1,    16078, 0x7c8f3a8c, S=1,     1024, 0xcfc8799f
0,       1210,       1210,        1,    16225, 0x9771a52e, S=1,     1024, 0xcfc8799f
0,       1220,       1220,        1,    16135, 0x2dfc1692, S=1,     1024, 0xcfc8799f
0,       1230,       1230,        1,    16661, 0x09c96d7e, S=1,     1024, 0xcfc8799f
0,       1240,       1240,        1,    16619, 0xc4735b56, S=1,     1024, 0xcfc8799f
0,       1250,       1250,        1,    16829, 0x589dc13f, S=1,     1024, 0xcfc8799f
0,       1260,       1260,        1,    16944, 0x997cd18f, S=1,     1024, 0xcfc8799f
0,       1270,       1270,        1,    17119, 0x6c396b60, S=1,     1024, 0xcfc8799f
0,       1280,       1280,        1,    17150, 0x8e603d31, S=1,     1024, 0xcfc8799f
0,       1290,       1290,        1,    17321, 0x0bbcee5a, S=1,     1024, 0xcfc8799f
0,       1300,       1300,        1,    17395, 0x99f0c974, S=1,     1024, 0xcfc8799f
0,       1310,       1310,        1,    17666, 0x37184223, S=1,     1024, 0xcfc8799f
0,       1320,       1320,        1,    17730, 0xa0d385b3, S=1,     1024, 0xcfc8799f
0,       1330,       1330,        1,    17934, 0xb22cc97d, S=1,     1024, 0xcfc8799f
0,       1340,       1340,        1,    17944, 0x0cd309c6, S=1,     1024, 0xcfc8799f
0,       1350,       1350,        1,    18238, 0x6b7e3237, S=1,     1024, 0xcfc8799f
0,       1360,       1360,        1,    18391, 0x4df3c48a, S=1,     1024, 0xcfc8799f
0,       1370,       1370,        1,    18543, 0x90a2f238, S=1,     1024, 0xcfc8799f
0,       1380,       1380,        1,    18939, 0xc57dda5b, S=1,     1024, 0xcfc8799f
0,       1390,       1390,        1,    19145, 0x1267294a, S=1,     1024, 0xcfc8799f
0,       1400,       1400,        1,    19120, 0xeac6a9c3, S=1,     1024, 0xcfc8799f
0,       1410,       1410,        1,    19130, 0x31f3edbc, S=1,     1024, 0xcfc8799f
0,       1420,       1420,        1,    19494, 0x3259a2f3, S=1,     1024, 0xcfc8799f
0,       1430,       1430,        1,    19534, 0xda22a752, S=1,     1024, 0xcfc8799f
0,       1440,       1440,        1,    19747, 0x8805c379, S=1,     1024, 0xcfc8799f
0,       1450,       1450,        1,    20114, 0xaaf96864, S=1,     1024, 0xcfc8799f
0,       1460,       1460,        1,    20257, 0x7223da26, S=1,     1024, 0xcfc8799f
0,       1470,       1470,        1,    20370, 0x08ef382a, S=1,     1024, 0xcfc8799f
0,       1480,       1480,        1,    20292, 0x4b47f207, S=1,     1024, 0xcfc8799f
0,       1490,       1490,        1,    20491, 0xeedd6d1c, S=1,     1024, 0xcfc8799f
0,       1500,       1500,        1,    20647, 0xb0d1dd45, S=1,     1024, 0xcfc8799f
0,       1510,       1510,        1,    20666, 0x382cc8a4, S=1,     1024, 0xcfc8799f
0,       1520,       1520,        1,    21007, 0x398f4f7d, S=1,     1024, 0xcfc8799f
0,       1530,       1530,        1,    21058, 0xd6616a9d, S=1,     1024, 0xcfc8799f
0,       1540,       1540,        1,    21153, 0x988749db, S=1,     1024, 0xcfc8799f
0,       1550,       1550,        1,    21078, 0x1b328059, S=1,     1024, 0xcfc8799f
0,       1560,       1560,        1,    21458, 0x6348529c, S=1,     1024, 0xcfc8799f
0,       1570,       1570,        1,    21669, 0xcf63e2de, S=1,     1024, 0xcfc8799f
0,       1580,       1580,        1,    21581, 0x1fc021af, S=1,     1024, 0xcfc8799f
0,       1590,       1590,        1,    21654, 0x899dab18, S=1,     1024, 0xcfc8799f
0,       1600,       1600,        1,    21987, 0x634086fe, S=1,     1024, 0xcfc8799f
0,       1610,       1610,        1,    22205, 0x617a7335, S=1,     1024, 0xcfc8799f
0,       1620,       1620,        1,    22475, 0x9fa2e01c, S=1,     1024, 0xcfc8799f
0,       1630,       1630,        1,    22490, 0x7dc5376c, S=1,     1024, 0xcfc8799f
0,       1640,       1640,        1,    22460, 0x33e6bbfe, S=1,     1024, 0xcfc8799f
0,       1650,       1650,        1,    22861, 0x18993510, S=1,     1024, 0xcfc8799f
0,       1660,       1660,        1,    22746, 0xdff85615, S=1,     1024, 0xcfc8799f
0,       1670,       1670,        1,    23165, 0xf0ac66a3, S=1,     1024, 0xcfc8799f
0,       1680,       1680,        1,    23273, 0x13869ad9, S=1,     1024, 0xcfc8799f
0,       1690,       1690,        1,    23211, 0xd30b6205, S=1,     1024, 0xcfc8799f
0,       1700,       1700,        1,    23648, 0xa0cef01b, S=1,     1024, 0xcfc8799f
0,       1710,       1710,        1,    23675, 0x760460b9, S=1,     1024, 0xcfc8799f
0,       1720,       1720,        1,    23874, 0xacf998c5, S=1,     1024, 0xcfc8799f
